<?xml version="1.0" encoding="UTF-8"?>
<svg id="Layer_1" xmlns="http://www.w3.org/2000/svg" xmlns:xlink="http://www.w3.org/1999/xlink" viewBox="0 0 4619 867.24">
  <defs>
    <style>
      .cls-1 {
        fill: url(#linear-gradient-2);
      }

      .cls-2 {
        letter-spacing: .73em;
      }

      .cls-3 {
        letter-spacing: .73em;
      }

      .cls-4 {
        letter-spacing: .7em;
      }

      .cls-5 {
        letter-spacing: .73em;
      }

      .cls-6 {
        letter-spacing: .7em;
      }

      .cls-7 {
        letter-spacing: .63em;
      }

      .cls-8 {
        letter-spacing: .73em;
      }

      .cls-9 {
        font-family: Jost-ExtraLight, Jost;
        font-size: 156.3px;
        font-weight: 200;
      }

      .cls-10 {
        fill: url(#linear-gradient);
      }
    </style>
    <linearGradient id="linear-gradient" x1="1570.31" y1="118.76" x2="2108.79" y2="303.04" gradientUnits="userSpaceOnUse">
      <stop offset="0" stop-color="#561dd6"/>
      <stop offset=".46" stop-color="#6a32d9"/>
      <stop offset="1" stop-color="#7f47dd"/>
    </linearGradient>
    <linearGradient id="linear-gradient-2" x1="1211.31" y1="305.02" x2="1757.45" y2="466.93" gradientUnits="userSpaceOnUse">
      <stop offset="0" stop-color="#7f47dd"/>
      <stop offset="1" stop-color="#561dd6"/>
    </linearGradient>
  </defs>
  <text class="cls-9" transform="translate(0 812.54)"><tspan class="cls-5" x="0" y="0">DIGI</tspan><tspan class="cls-7" x="739.9" y="0">T</tspan><tspan class="cls-2" x="907.29" y="0">AL MARKETING </tspan><tspan class="cls-6" x="3445.2" y="0">A</tspan><tspan class="cls-3" x="3651.2" y="0">GEN</tspan><tspan class="cls-4" x="4310.76" y="0">C</tspan><tspan class="cls-8" x="4527.23" y="0">Y</tspan></text>
  <path d="M16.93,616.82V.23h142.18c20.63,0,39.43,11.83,48.35,30.43l176.7,368.25c8.7,18.12,27.01,29.65,47.11,29.65h0V51.25c0-28.18,22.84-51.02,51.02-51.02h68.19v616.59h-139.32c-24.36,0-46.54-14.05-56.94-36.08L183.06,218.23c-8.57-18.16-26.85-29.74-46.93-29.74h0v383.89c0,24.54-19.9,44.44-44.44,44.44H16.93Z"/>
  <g>
    <path d="M604.44.23l633.88.27c1.68,0,2.88,1.62,2.38,3.23l-29.97,97.39c-.63,2.05-2.52,3.45-4.67,3.45l-497.42.28c-57.71,0-104.43-46.9-104.21-104.61h0Z"/>
    <path d="M603.91,321.66c.15-44.81,36.52-81.06,81.33-81.06l408.89.13v104.6l-385.73-.02-.1,166.82,385.83.13v104.56h-490.56l.47-104.73-.12-190.44Z"/>
  </g>
  <path d="M2990.82,616.63c-185.32,0-319.88-133.78-319.88-309.5S2805.5,0,2990.82,0s319.88,132.19,319.88,307.13-133.76,309.5-319.88,309.5ZM2990.84,512.26c124.31,0,209.4-93.15,203.44-215.54-5.28-108.47-95.03-194.08-205.57-193.14-119.06,1.02-202.46,87.79-202.46,205.17s84.39,203.5,204.59,203.5Z"/>
  <path d="M3364.65,363.58c0-33.41,27.12-60.48,60.53-60.41l178.84.37c79.52,0,109.85-46.73,109.85-100.01s-29.51-99.19-108.21-99.19l-181.39.16c-32.92.03-59.63-26.65-59.63-59.57V.23h261.51c139.36,0,218.88,82.8,218.88,200.84,0,68.16-28.26,124.4-80.39,158.8-13.27,8.76-18.52,25.64-12.32,40.28l91.06,214.91h-133.62l-80.02-195.28c-5.65-13.78-19.07-22.79-33.96-22.79h-67.23c-20.35,0-36.85,16.5-36.85,36.85v181.21h-127.06v-251.48ZM3491.71,303.55"/>
  <path d="M3908.22,616.82V52.51c0-28.87,23.4-52.28,52.28-52.28h75.15v616.59h-127.43Z"/>
  <path d="M4479.73,36.5c-5.11-21.28-24.13-36.27-46-36.27h-150.35c-23.98,0-44.85,16.45-50.45,39.78l-138.44,576.8h130.72l27.03-126.59,6.67-31.25h.03l40.07-186.91,29.71-138.82c2.44-11.41,12.53-19.57,24.2-19.57h7.24c11.44,0,21.32,7.99,23.71,19.17l43.62,203.77,26.25,122.36h.01l4.07,19.06,2.6,12.19,27.03,126.59h131.54l-139.27-580.32Z"/>
  <path class="cls-10" d="M2051.98,616.43c-.05.18-.27.24-.41.12l-403.86-365.47c-15.94-14.35-22.33-36.51-16.48-57.14l14.74-51.94c6.82-24.04,26.71-42.11,51.29-46.6L2196.83.17c.47-.09.9.27.89.75l-.84,102.11c0,1.01-.66,1.89-1.62,2.19l-288.27,90.36c-35.94,11.27-48.45,55.75-23.64,84.1l196.77,230.67c1.02,1.19,1.37,2.82.94,4.33l-29.07,101.75Z"/>
  <path class="cls-1" d="M1295.17.35l404.36,363.88c15.99,14.39,22.4,36.63,16.53,57.32l-13.38,47.16c-7.71,27.15-30.18,47.57-57.95,52.64l-492.71,95.42c-1.78.35-3.44-1.02-3.44-2.84v-98.71c0-1.73,1.12-3.26,2.77-3.79l299.54-94.9c30.7-9.73,41.33-47.76,20.12-72l-206.69-236.18c-.93-1.07-1.26-2.53-.87-3.9L1292.97.98c.27-.96,1.46-1.3,2.21-.63Z"/>
  <path d="M2378.39,616.64V115.91c0-5.89-4.78-10.67-10.67-10.67h-119.23V0h387.25v105.24h-118.17c-6.48,0-11.73,5.25-11.73,11.73v499.67h-127.44Z"/>
</svg>