<?xml version="1.0" encoding="UTF-8"?>
<svg id="Layer_1" data-name="Layer 1" xmlns="http://www.w3.org/2000/svg" xmlns:xlink="http://www.w3.org/1999/xlink" viewBox="0 0 1154.33 1027.74">
  <defs>
    <style>
      .cls-1 {
        filter: url(#drop-shadow-1);
      }

      .cls-2 {
        fill: url(#New_Gradient_Swatch_1-2);
      }

      .cls-3 {
        fill: url(#linear-gradient);
      }

      .cls-4 {
        fill: url(#New_Gradient_Swatch_1);
      }
    </style>
    <filter id="drop-shadow-1" x="-21.83" y="-23.13" width="1216" height="1088" filterUnits="userSpaceOnUse">
      <feOffset dx="9" dy="7"/>
      <feGaussianBlur result="blur" stdDeviation="10"/>
      <feFlood flood-color="#000" flood-opacity=".4"/>
      <feComposite in2="blur" operator="in"/>
      <feComposite in="SourceGraphic"/>
    </filter>
    <linearGradient id="New_Gradient_Swatch_1" data-name="New Gradient Swatch 1" x1="644.59" y1="845.96" x2="1159.5" y2="845.96" gradientUnits="userSpaceOnUse">
      <stop offset="0" stop-color="#561dd6"/>
      <stop offset=".32" stop-color="#5920d6"/>
      <stop offset=".62" stop-color="#642cd8"/>
      <stop offset=".91" stop-color="#773fdb"/>
      <stop offset="1" stop-color="#7f47dd"/>
    </linearGradient>
    <linearGradient id="New_Gradient_Swatch_1-2" data-name="New Gradient Swatch 1" x1="706.8" y1="182.02" x2="1223.08" y2="182.02" xlink:href="#New_Gradient_Swatch_1"/>
    <linearGradient id="linear-gradient" x1="0" y1="514.39" x2="830.29" y2="514.39" gradientUnits="userSpaceOnUse">
      <stop offset="0" stop-color="#7f47dd"/>
      <stop offset=".09" stop-color="#773fdb"/>
      <stop offset=".38" stop-color="#642cd8"/>
      <stop offset=".68" stop-color="#5920d6"/>
      <stop offset="1" stop-color="#561dd6"/>
    </linearGradient>
  </defs>
  <g class="cls-1">
    <path class="cls-4" d="M1036.46,772.92l-150.9-97.58c-14.78-9.55-33.51-10.57-49.23-2.67l-195.23,98.1c-2.26,1.14-2.25,4.38.03,5.49l223.75,109.44,282.88,138.36c3.02,1.48,6.54-.72,6.54-4.08l.02-117.57c0-33.21-16.83-64.15-44.72-82.19l-73.15-47.31Z"/>
    <path class="cls-2" d="M859.61,145.55l-220.91,110.99c-2.19,1.1-2.17,4.23.03,5.31l198.48,97.08c15.97,7.81,34.88,6.61,49.73-3.15l147.65-97.06,64.74-42.57c33.29-21.89,53.4-58.99,53.56-98.83l.46-114c0-2.45-2.57-4.05-4.77-2.95l-288.98,145.2Z"/>
    <path class="cls-3" d="M830.17,460.91c-.03-20.42-6.97-39.75-19.13-55.23-8.2-10.46-18.74-19.14-31.13-25.2l-196.54-96.14L4.86,1.39C2.63.3.02,1.92.02,4.41L0,140.56c0,22.81,11.56,44.06,30.71,56.44l323.18,208.99,52.13,33.71c50.45,32.62,50.73,106.33.53,139.33l-63.25,41.58L39.22,820.53c-23.43,15.4-37.58,41.52-37.7,69.56l-.55,136.68c0,.72.76,1.19,1.4.87l568.59-285.7,201.03-101.01c10.77-5.31,20.33-12.33,28.46-20.63,18.85-19.26,29.87-45.43,29.84-73.27l-.12-86.12Z"/>
  </g>
</svg>